HIERARCHY
ROOT reference
{
  OFFSET 0 0 0
  CHANNELS 6 Xposition Yposition Zposition Zrotation Xrotation Yrotation
  JOINT Hips
  {
    OFFSET 85.8452 77.9423 -175.398
    CHANNELS 6 Xposition Yposition Zposition Zrotation Xrotation Yrotation
    JOINT Spine
    {
      OFFSET 0 7.81434 0
      CHANNELS 6 Xposition Yposition Zposition Zrotation Xrotation Yrotation
      JOINT Spine1
      {
        OFFSET 0 23.3781 0
        CHANNELS 6 Xposition Yposition Zposition Zrotation Xrotation Yrotation
        JOINT Neck
        {
          OFFSET 0 23.2821 2.11656
          CHANNELS 6 Xposition Yposition Zposition Zrotation Xrotation Yrotation
          JOINT Head
          {
            OFFSET 0 13.3416 -1.90594
            CHANNELS 6 Xposition Yposition Zposition Zrotation Xrotation Yrotation
            End Site
            {
              OFFSET 0 23.8242 0
            }
          }
        }
        JOINT LeftShoulder
        {
          OFFSET 3.82472 21.4916 -0.175476
          CHANNELS 6 Xposition Yposition Zposition Zrotation Xrotation Yrotation
          JOINT LeftArm
          {
            OFFSET 10.8239 0 0
            CHANNELS 6 Xposition Yposition Zposition Zrotation Xrotation Yrotation
            JOINT LeftForeArm
            {
              OFFSET 28.5356 0 0
              CHANNELS 6 Xposition Yposition Zposition Zrotation Xrotation Yrotation
              JOINT LeftHand
              {
                OFFSET 24.5315 0 0
                CHANNELS 6 Xposition Yposition Zposition Zrotation Xrotation Yrotation
                End Site
                {
                  OFFSET 14.2945 0 0
                }
              }
            }
          }
        }
        JOINT RightShoulder
        {
          OFFSET -3.77033 21.4916 -0.175476
          CHANNELS 6 Xposition Yposition Zposition Zrotation Xrotation Yrotation
          JOINT RightArm
          {
            OFFSET -10.8239 0 0
            CHANNELS 6 Xposition Yposition Zposition Zrotation Xrotation Yrotation
            JOINT RightForeArm
            {
              OFFSET -28.5356 0 0
              CHANNELS 6 Xposition Yposition Zposition Zrotation Xrotation Yrotation
              JOINT RightHand
              {
                OFFSET -24.5315 0 0
                CHANNELS 6 Xposition Yposition Zposition Zrotation Xrotation Yrotation
                End Site
                {
                  OFFSET -14.2945 0 0
                }
              }
            }
          }
        }
      }
    }
    JOINT LeftUpLeg
    {
      OFFSET 9.52968 0 0
      CHANNELS 6 Xposition Yposition Zposition Zrotation Xrotation Yrotation
      JOINT LeftLeg
      {
        OFFSET 0 -40.1884 0
        CHANNELS 6 Xposition Yposition Zposition Zrotation Xrotation Yrotation
        JOINT LeftFoot
        {
          OFFSET 0 -39.9954 0
          CHANNELS 6 Xposition Yposition Zposition Zrotation Xrotation Yrotation
          JOINT LeftToeBase
          {
            OFFSET 0 -6.19429 14.2945
            CHANNELS 6 Xposition Yposition Zposition Zrotation Xrotation Yrotation
            End Site
            {
              OFFSET 0 0 3.81187
            }
          }
        }
      }
    }
    JOINT RightUpLeg
    {
      OFFSET -9.52968 0 0
      CHANNELS 6 Xposition Yposition Zposition Zrotation Xrotation Yrotation
      JOINT RightLeg
      {
        OFFSET 0 -40.1884 0
        CHANNELS 6 Xposition Yposition Zposition Zrotation Xrotation Yrotation
        JOINT RightFoot
        {
          OFFSET 0 -39.9954 0
          CHANNELS 6 Xposition Yposition Zposition Zrotation Xrotation Yrotation
          JOINT RightToeBase
          {
            OFFSET 0 -6.19429 14.2945
            CHANNELS 6 Xposition Yposition Zposition Zrotation Xrotation Yrotation
            End Site
            {
              OFFSET 0 0 3.81187
            }
          }
        }
      }
    }
  }
}
MOTION
Frames:	11
Frame Time:	0.004
0 0 0 0 0 -0 -20.4335 83.0015 -180.531 -0.712254 1.8255 -1.03688 3.55271e-015 7.81434 2.84217e-014 -0.407657 -7.60016 1.01308 0 23.3781 0 0.357589 -1.17559 1.04384 0 23.2821 2.11656 0.199686 25.2257 1.40624 -1.77636e-015 13.3416 -1.90594 -1.22484 4.47123 1.35941 3.82472 21.4916 -0.175476 15.2461 1.83581 4.94645 10.8239 -2.84217e-014 0 -19.5758 -1.16868 2.76759 28.5356 0 -2.84217e-014 1.99168 0.063895 0.948678 24.5315 -2.84217e-014 0 2.14627 0.031693 -0.881848 -3.77033 21.4916 -0.175476 -10.6031 0.797931 8.31998 -10.8239 0 2.84217e-014 13.8728 -4.21091 -2.11031 -28.5356 2.84217e-014 0 -0.544327 5.95307 0.189809 -24.5315 -2.84217e-014 0 -7.60498 6.08128 -1.93566 9.52968 0 2.84217e-014 1.05426 3.53257 1.19456 1.77636e-015 -40.1884 -2.84217e-014 -4.6757 -3.56631 -0.52315 1.77636e-015 -39.9954 -2.84217e-014 5.69052 -5.21053 4.80829 3.55271e-015 -6.19429 14.2945 4.96962e-017 3.97569e-016 -1.59028e-015 -9.52968 0 0 0.412613 -1.85661 3.00456 -3.55271e-015 -40.1884 0 1.56365 2.85438 -0.475336 0 -39.9954 0 0.323939 -5.09535 1.30007 0 -6.19429 14.2945 -4.22417e-016 3.97569e-016 -3.97569e-016 
0 0 0 0 0 -0 -20.4335 83.0015 -180.531 -0.712254 1.8255 -1.03688 3.55271e-015 7.81434 2.84217e-014 -0.407657 -7.60016 1.01308 0 23.3781 0 0.357749 -1.18436 1.04384 3.55271e-015 23.2821 2.11656 0.200175 25.2077 1.40603 0 13.3416 -1.90594 -1.19837 4.47123 1.35941 3.82472 21.4916 -0.175476 15.2461 1.83581 4.94645 10.8239 0 2.84217e-014 -19.5742 -1.20159 2.76653 28.5356 2.84217e-014 0 1.99114 0.09355 0.97608 24.5315 0 -2.84217e-014 2.14922 0.061205 -0.861855 -3.77033 21.4916 -0.175476 -10.6031 0.797931 8.31998 -10.8239 -2.84217e-014 0 13.8865 -4.20214 -2.11029 -28.5356 -2.84217e-014 0 -0.540967 5.95308 0.157421 -24.5315 0 0 -7.67065 6.09068 -1.92826 9.52968 0 2.84217e-014 1.06503 3.54196 1.19457 1.77636e-015 -40.1884 2.84217e-014 -4.68448 -3.58068 -0.5217 1.77636e-015 -39.9954 0 5.64416 -5.21052 4.80961 1.77636e-015 -6.19429 14.2945 0 7.95139e-016 -0 -9.52968 0 0 0.413005 -1.85659 3.01665 0 -40.1884 -2.84217e-014 1.56257 2.85439 -0.453655 0 -39.9954 -2.84217e-014 0.281698 -5.11874 1.26655 0 -6.19429 14.2945 2.73329e-016 0 -0 
0 0 0 0 0 -0 -20.4335 83.0015 -180.529 -0.71224 1.82626 -1.03688 0 7.81434 0 -0.407657 -7.60016 1.01308 0 23.3781 -2.84217e-014 0.35794 -1.19484 1.04384 -3.55271e-015 23.2821 2.11656 0.200253 25.2049 1.40599 -1.77636e-015 13.3416 -1.90594 -1.20361 4.47123 1.35941 3.82472 21.4916 -0.175476 15.2461 1.83581 4.94645 10.8239 2.84217e-014 0 -19.5738 -1.20531 2.77774 28.5356 0 2.84217e-014 1.99088 0.10736 0.994106 24.5315 -2.84217e-014 0 2.15928 0.074382 -0.868142 -3.77033 21.4916 -0.175476 -10.6031 0.797931 8.31998 -10.8239 0 0 13.8902 -4.1913 -2.11026 -28.5356 5.68434e-014 2.84217e-014 -0.538662 5.95308 0.135192 -24.5315 2.84217e-014 -2.84217e-014 -7.75986 6.08322 -1.91972 9.52968 -1.42109e-014 0 1.06923 3.54198 1.19457 0 -40.1884 2.84217e-014 -4.68933 -3.57833 -0.513434 0 -39.9954 0 5.67163 -5.21067 4.79072 0 -6.19429 14.2945 1.49089e-016 -7.95139e-016 -0 -9.52968 -1.42109e-014 -2.84217e-014 0.412827 -1.8566 3.01115 3.55271e-015 -40.1884 -5.68434e-014 1.56321 2.85438 -0.466424 0 -39.9954 0 0.324754 -5.10167 1.26653 -3.55271e-015 -6.19429 14.2945 -8.69683e-017 0 -0 
0 0 0 0 0 -0 -20.4332 83.0015 -180.527 -0.712155 1.83213 -1.03624 0 7.81434 0 -0.40777 -7.60017 1.01223 -3.55271e-015 23.3781 0 0.358062 -1.20234 1.04312 0 23.2821 2.11656 0.188295 25.2016 1.40359 0 13.3416 -1.90594 -1.1762 4.46362 1.3594 3.82472 21.4916 -0.175476 15.2457 1.83578 4.9571 10.8239 0 2.84217e-014 -19.5742 -1.1997 2.77253 28.5356 0 -2.84217e-014 1.9908 0.110322 1.00896 24.5315 0 2.84217e-014 2.17896 0.076752 -0.858045 -3.77033 21.4916 -0.175476 -10.6033 0.798757 8.31998 -10.8239 2.84217e-014 -2.84217e-014 13.8897 -4.18649 -2.11025 -28.5356 0 0 -0.539219 5.96222 0.115914 -24.5315 2.84217e-014 -2.84217e-014 -7.79951 6.09149 -1.89866 9.52968 0 0 1.06782 3.54021 1.19456 -1.77636e-015 -40.1884 0 -4.68977 -3.59243 -0.49323 -1.77636e-015 -39.9954 0 5.66956 -5.19813 4.77111 0 -6.19429 14.2945 3.97569e-016 0 -0 -9.52968 1.42109e-014 0 0.414053 -1.85556 2.99997 3.55271e-015 -40.1884 0 1.56464 2.85437 -0.495177 0 -39.9954 -2.84217e-014 0.303272 -5.10402 1.32374 0 -6.19429 14.2945 -1.86361e-016 0 3.97569e-016 
0 0 0 0 0 -0 -20.4344 83.0015 -180.526 -0.712086 1.83716 -1.03556 0 7.81434 0 -0.407889 -7.60017 1.01133 3.55271e-015 23.3781 -2.84217e-014 0.358049 -1.20257 1.04233 0 23.2821 2.11656 0.201429 25.1803 1.40097 0 13.3416 -1.90594 -1.1968 4.48548 1.34909 3.82472 21.4916 -0.175476 15.246 1.8358 4.94772 10.8239 2.84217e-014 0 -19.5742 -1.19327 2.78876 28.5356 2.84217e-014 0 1.9906 0.12007 1.02188 24.5315 0 0 2.16356 0.086335 -0.854718 -3.77033 21.4916 -0.175476 -10.6048 0.809156 8.31962 -10.8239 -2.84217e-014 -2.84217e-014 13.8799 -4.24766 -2.11165 -28.5356 0 0 -0.509468 5.99387 0.110924 -24.5315 -2.84217e-014 2.84217e-014 -7.85908 6.12395 -1.89704 9.52968 0 0 1.06982 3.5472 1.19457 1.77636e-015 -40.1884 2.84217e-014 -4.69206 -3.60901 -0.511412 1.77636e-015 -39.9954 0 5.63127 -5.18932 4.78105 -1.77636e-015 -6.19429 14.2945 -3.97569e-016 0 -0 -9.52968 -1.42109e-014 -2.84217e-014 0.416131 -1.85448 3.01294 0 -40.1884 0 1.56276 2.85439 -0.457459 -3.55271e-015 -39.9954 2.84217e-014 0.318789 -5.10718 1.26329 3.55271e-015 -6.19429 14.2945 4.96962e-016 -1.19271e-015 3.97569e-016 
0 0 0 0 0 -0 -20.4356 83.0015 -180.524 -0.712185 1.8329 -1.03486 0 7.81434 0 -0.407128 -7.60017 1.01042 7.10543e-015 23.3781 0 0.358324 -1.21858 1.04155 3.55271e-015 23.2821 2.11656 0.200873 25.1741 1.39848 -3.55271e-015 13.3416 -1.90594 -1.17827 4.49178 1.35054 3.82472 21.4916 -0.175476 15.246 1.8358 4.948 10.8239 0 2.84217e-014 -19.5741 -1.19217 2.79388 28.5356 0 -2.84217e-014 1.98226 0.124822 1.03075 24.5315 0 0 2.20323 0.090543 -0.85196 -3.77033 21.4916 -0.175476 -10.5916 0.803895 8.31924 -10.8239 0 -2.84217e-014 13.87 -4.24616 -2.1229 -28.5356 2.84217e-014 2.84217e-014 -0.498371 6.01167 0.099934 -24.5315 0 0 -7.91482 6.14275 -1.89897 9.52968 1.42109e-014 0 1.07245 3.5573 1.19459 0 -40.1884 2.84217e-014 -4.69179 -3.61673 -0.491719 1.77636e-015 -39.9954 0 5.61919 -5.18906 4.76236 1.77636e-015 -6.19429 14.2945 -4.96962e-017 7.95139e-016 -0 -9.52968 0 0 0.418164 -1.85564 3.02196 0 -40.1884 2.84217e-014 1.56385 2.85399 -0.479464 3.55271e-015 -39.9954 0 0.317637 -5.11012 1.2824 -3.55271e-015 -6.19429 14.2945 1.61513e-016 -7.95139e-016 7.95139e-016 
0 0 0 0 0 -0 -20.4369 83.0015 -180.523 -0.712007 1.84402 -1.03417 3.55271e-015 7.81434 0 -0.409776 -7.60017 1.00953 3.55271e-015 23.3781 0 0.36191 -1.21969 1.04078 0 23.2821 2.11656 0.207831 25.1723 1.39586 0 13.3416 -1.90594 -1.19433 4.48049 1.3413 3.82472 21.4916 -0.175476 15.246 1.8358 4.9484 10.8239 0 0 -19.5733 -1.20982 2.79215 28.5356 2.84217e-014 2.84217e-014 1.97552 0.147016 1.04694 24.5315 0 -2.84217e-014 2.1966 0.112697 -0.848063 -3.77033 21.4916 -0.175476 -10.5923 0.805974 8.31852 -10.8239 2.84217e-014 0 13.8676 -4.27702 -2.12287 -28.5356 0 0 -0.495672 6.03608 0.098502 -24.5315 0 2.84217e-014 -7.91572 6.16635 -1.8873 9.52968 0 2.84217e-014 1.07568 3.55865 1.19459 0 -40.1884 0 -4.69355 -3.61979 -0.498974 1.77636e-015 -39.9954 0 5.63623 -5.18936 4.77292 0 -6.19429 14.2945 4.96962e-017 0 -1.59028e-015 -9.52968 1.42109e-014 2.84217e-014 0.420169 -1.8688 3.01495 3.55271e-015 -40.1884 2.84217e-014 1.56397 2.85365 -0.481803 0 -39.9954 0 0.297246 -5.11045 1.29403 0 -6.19429 14.2945 -4.96962e-017 0 3.97569e-016 
0 0 0 0 0 -0 -20.4382 83.0015 -180.521 -0.712015 1.84476 -1.03348 0 7.81434 2.84217e-014 -0.413111 -7.60017 1.0087 -3.55271e-015 23.3781 -2.84217e-014 0.370011 -1.2276 1.04008 -3.55271e-015 23.2821 2.11656 0.188185 25.1574 1.39312 -1.77636e-015 13.3416 -1.90594 -1.15853 4.48862 1.34584 3.82472 21.4916 -0.175476 15.246 1.8358 4.94892 10.8239 2.84217e-014 0 -19.5759 -1.15202 2.80251 28.5356 0 2.84217e-014 1.9947 0.12396 1.05408 24.5315 0 -2.84217e-014 2.17805 0.090188 -0.835576 -3.77033 21.4916 -0.175476 -10.5941 0.80915 8.31594 -10.8239 0 0 13.8565 -4.31282 -2.13152 -28.5356 -5.68434e-014 0 -0.465074 6.06342 0.0953113 -24.5315 -2.84217e-014 0 -7.98234 6.19471 -1.88652 9.52968 0 2.84217e-014 1.08088 3.55868 1.1961 0 -40.1884 2.84217e-014 -4.69566 -3.61929 -0.478823 -1.77636e-015 -39.9954 0 5.62646 -5.19004 4.73844 -1.77636e-015 -6.19429 14.2945 -1.98785e-016 3.97569e-016 -7.95139e-016 -9.52968 0 0 0.421232 -1.86843 3.00835 0 -40.1884 -2.84217e-014 1.5632 2.85333 -0.46651 0 -39.9954 0 0.321916 -5.09682 1.28129 -3.55271e-015 -6.19429 14.2945 1.36664e-016 0 -0 
0 0 0 0 0 -0 -20.4396 83.0015 -180.52 -0.712004 1.84658 -1.03281 0 7.81434 -2.84217e-014 -0.416426 -7.60018 1.00796 0 23.3781 0 0.371537 -1.23166 1.03948 -7.10543e-015 23.2821 2.11656 0.195785 25.1569 1.39121 0 13.3416 -1.90594 -1.1659 4.47119 1.34447 3.82472 21.4916 -0.175476 15.2566 1.83099 4.94954 10.8239 2.84217e-014 0 -19.5746 -1.17351 2.81405 28.5356 -2.84217e-014 2.84217e-014 1.96314 0.118526 1.03039 24.5315 0 0 2.30085 0.085276 -0.806172 -3.77033 21.4916 -0.175476 -10.596 0.812596 8.3058 -10.8239 2.84217e-014 0 13.8695 -4.27018 -2.12184 -28.5356 0 -2.84217e-014 -0.484333 6.05291 0.0932 -24.5315 0 0 -8.01058 6.1856 -1.89998 9.52968 -1.42109e-014 0 1.08475 3.55847 1.19881 0 -40.1884 2.84217e-014 -4.70004 -3.62892 -0.483882 0 -39.9954 0 5.6281 -5.1889 4.75207 1.77636e-015 -6.19429 14.2945 -3.47873e-016 3.97569e-016 -0 -9.52968 -1.42109e-014 -2.84217e-014 0.422529 -1.86833 3.01998 3.55271e-015 -40.1884 2.84217e-014 1.56367 2.85299 -0.475925 7.10543e-015 -39.9954 0 0.298687 -5.11413 1.27685 -3.55271e-015 -6.19429 14.2945 2.48481e-016 -7.95139e-016 -0 
0 0 0 0 0 -0 -20.4409 83.0015 -180.519 -0.711988 1.84859 -1.03217 0 7.81434 0 -0.419015 -7.60018 1.00735 3.55271e-015 23.3781 0 0.37193 -1.24223 1.03902 0 23.2821 2.11656 0.187739 25.1397 1.38845 0 13.3416 -1.90594 -1.15689 4.48893 1.34112 3.82472 21.4916 -0.175476 15.2439 1.84736 4.95032 10.8239 2.84217e-014 0 -19.5621 -1.17209 2.81239 28.5356 0 -2.84217e-014 1.95978 0.132804 1.04517 24.5315 2.84217e-014 0 2.2895 0.099406 -0.80687 -3.77033 21.4916 -0.175476 -10.5979 0.815427 8.31012 -10.8239 0 2.84217e-014 13.8567 -4.29858 -2.13401 -28.5356 2.84217e-014 0 -0.467332 6.07697 0.098285 -24.5315 -2.84217e-014 2.84217e-014 -8.09084 6.21029 -1.88998 9.52968 -1.42109e-014 -2.84217e-014 1.09199 3.55913 1.20171 0 -40.1884 0 -4.70325 -3.64002 -0.485807 -1.77636e-015 -39.9954 0 5.63782 -5.18015 4.73457 1.77636e-015 -6.19429 14.2945 -4.96962e-017 7.95139e-016 -7.95139e-016 -9.52968 -2.84217e-014 0 0.423232 -1.86831 3.02274 0 -40.1884 0 1.56341 2.85262 -0.470776 3.55271e-015 -39.9954 0 0.328285 -5.09487 1.27249 0 -6.19429 14.2945 -3.97569e-016 7.95139e-016 -7.95139e-016 
0 0 0 0 0 -0 -20.4423 83.0015 -180.517 -0.709804 1.85054 -1.03159 3.55271e-015 7.81434 0 -0.419971 -7.59735 1.00881 0 23.3781 -2.84217e-014 0.371819 -1.25266 1.04083 0 23.2821 2.11656 0.203765 25.1375 1.38168 1.77636e-015 13.3416 -1.90594 -1.17641 4.47948 1.33327 3.82472 21.4916 -0.175476 15.2505 1.85135 4.95114 10.8239 2.84217e-014 2.84217e-014 -19.5743 -1.14766 2.81592 28.5356 0 0 1.95907 0.117531 1.05683 24.5315 0 0 2.30393 0.083288 -0.807922 -3.77033 21.4916 -0.175476 -10.5987 0.815263 8.30275 -10.8239 -2.84217e-014 0 13.8411 -4.36935 -2.13808 -28.5356 -2.84217e-014 2.84217e-014 -0.439998 6.13044 0.104264 -24.5315 0 -2.84217e-014 -8.10136 6.26469 -1.90102 9.52968 0 0 1.09345 3.56462 1.20467 -1.77636e-015 -40.1884 0 -4.70325 -3.65114 -0.469392 0 -39.9954 2.84217e-014 5.61805 -5.17908 4.72892 0 -6.19429 14.2945 -1.98785e-016 0 -1.59028e-015 -9.52968 -1.42109e-014 -2.84217e-014 0.4237 -1.86816 3.02174 0 -40.1884 0 1.56328 2.85219 -0.468217 0 -39.9954 0 0.324609 -5.09888 1.25544 -7.10543e-015 -6.19429 14.2945 -2.11209e-016 0 7.95139e-016 
